<svg xmlns="http://www.w3.org/2000/svg" width="1440" height="1530" viewBox="0 0 1440 1530"><title>Casaca Club – Wireframe Checkout (escritorio)</title><rect width="1440" height="1530" fill="#ffffff"/><rect x="0" y="0" width="1440" height="72" rx="0" fill="#fafafa" stroke="#9a9a9a" stroke-width="1.5"/><rect x="120" y="22" width="28" height="28" rx="6" fill="#e6e6e6" stroke="#9a9a9a" stroke-width="1.5"/><text x="160" y="43" font-family="Arial, Helvetica, sans-serif" font-size="20" fill="#222" text-anchor="start" font-weight="700">Casaca Club</text><text x="1216" y="42" font-family="Arial, Helvetica, sans-serif" font-size="15" fill="#555" text-anchor="start">Contacto</text><text x="1094" y="42" font-family="Arial, Helvetica, sans-serif" font-size="15" fill="#555" text-anchor="start">Privacidad</text><text x="990" y="42" font-family="Arial, Helvetica, sans-serif" font-size="15" fill="#555" text-anchor="start">Checkout</text><text x="886" y="42" font-family="Arial, Helvetica, sans-serif" font-size="15" fill="#555" text-anchor="start">Catálogo</text><text x="800" y="42" font-family="Arial, Helvetica, sans-serif" font-size="15" fill="#555" text-anchor="start">Inicio</text><text x="720.0" y="150" font-family="Arial, Helvetica, sans-serif" font-size="30" fill="#222" text-anchor="middle" font-weight="700">Simulador de compra / Checkout</text><rect x="520.0" y="176" width="400" height="8" rx="4" fill="#d6d6d6" stroke="none" stroke-width="1.5"/><text x="364.0" y="258" font-family="Arial, Helvetica, sans-serif" font-size="13" fill="#555" text-anchor="start" font-weight="700">Nombre completo</text><rect x="364.0" y="268" width="344.0" height="44" rx="6" fill="#fff" stroke="#9a9a9a" stroke-width="1.5"/><text x="376.0" y="295" font-family="Arial, Helvetica, sans-serif" font-size="14" fill="#aaa" text-anchor="start">Ej: Ana Gómez</text><text x="732.0" y="258" font-family="Arial, Helvetica, sans-serif" font-size="13" fill="#555" text-anchor="start" font-weight="700">Correo electrónico</text><rect x="732.0" y="268" width="344.0" height="44" rx="6" fill="#fff" stroke="#9a9a9a" stroke-width="1.5"/><text x="744.0" y="295" font-family="Arial, Helvetica, sans-serif" font-size="14" fill="#aaa" text-anchor="start">Ej: ana@correo.com</text><text x="364.0" y="348" font-family="Arial, Helvetica, sans-serif" font-size="13" fill="#555" text-anchor="start" font-weight="700">Camiseta</text><rect x="364.0" y="358" width="344.0" height="44" rx="6" fill="#fff" stroke="#9a9a9a" stroke-width="1.5"/><text x="376.0" y="385" font-family="Arial, Helvetica, sans-serif" font-size="14" fill="#aaa" text-anchor="start">Seleccioná una camiseta  ▾</text><text x="732.0" y="348" font-family="Arial, Helvetica, sans-serif" font-size="13" fill="#555" text-anchor="start" font-weight="700">Cantidad</text><rect x="732.0" y="358" width="344.0" height="44" rx="6" fill="#fff" stroke="#9a9a9a" stroke-width="1.5"/><text x="744.0" y="385" font-family="Arial, Helvetica, sans-serif" font-size="14" fill="#aaa" text-anchor="start">1</text><text x="364.0" y="438" font-family="Arial, Helvetica, sans-serif" font-size="13" fill="#555" text-anchor="start" font-weight="700">Comentario (opcional)</text><rect x="364.0" y="448" width="712" height="90" rx="6" fill="#fff" stroke="#9a9a9a" stroke-width="1.5"/><rect x="364.0" y="558" width="18" height="18" rx="3" fill="#fff" stroke="#9a9a9a" stroke-width="1.5"/><text x="394.0" y="572" font-family="Arial, Helvetica, sans-serif" font-size="14" fill="#222" text-anchor="start">Leí y acepto la Política de Privacidad (Ley 25.326)</text><rect x="364.0" y="602" width="160" height="48" rx="8" fill="#555" stroke="#555" stroke-width="1.5"/><text x="444.0" y="631.0" font-family="Arial, Helvetica, sans-serif" font-size="14" fill="#fff" text-anchor="middle" font-weight="700">Simular compra</text><rect x="540.0" y="602" width="110" height="48" rx="8" fill="#fff" stroke="#555" stroke-width="1.5"/><text x="595.0" y="631.0" font-family="Arial, Helvetica, sans-serif" font-size="14" fill="#555" text-anchor="middle" font-weight="700">Limpiar</text><rect x="364.0" y="672" width="712" height="54" rx="6" fill="#efefef" stroke="#9a9a9a" stroke-width="1.5" stroke-dasharray="6 4"/><text x="378.0" y="704" font-family="Arial, Helvetica, sans-serif" font-size="13" fill="#555" text-anchor="start">Mensaje: resumen de la compra simulada y total</text><rect x="340.0" y="220" width="760" height="530" rx="10" fill="none" stroke="#9a9a9a" stroke-width="1.5"/><text x="340.0" y="782" font-family="Arial, Helvetica, sans-serif" font-size="13" fill="#8a8a8a" text-anchor="start">Validación y resumen con js/main.js. Los datos no se envían ni se guardan.</text><text x="720.0" y="842" font-family="Arial, Helvetica, sans-serif" font-size="24" fill="#222" text-anchor="middle" font-weight="700">Política de Privacidad</text><rect x="120.0" y="872" width="588.0" height="130" rx="6" fill="#fff" stroke="#9a9a9a" stroke-width="1.5"/><text x="136.0" y="902" font-family="Arial, Helvetica, sans-serif" font-size="16" fill="#222" text-anchor="start" font-weight="700">1. Cláusula</text><rect x="136.0" y="922" width="556.0" height="8" rx="4" fill="#d6d6d6" stroke="none" stroke-width="1.5"/><rect x="136.0" y="940" width="556.0" height="8" rx="4" fill="#d6d6d6" stroke="none" stroke-width="1.5"/><rect x="136.0" y="958" width="333.59999999999997" height="8" rx="4" fill="#d6d6d6" stroke="none" stroke-width="1.5"/><rect x="732.0" y="872" width="588.0" height="130" rx="6" fill="#fff" stroke="#9a9a9a" stroke-width="1.5"/><text x="748.0" y="902" font-family="Arial, Helvetica, sans-serif" font-size="16" fill="#222" text-anchor="start" font-weight="700">2. Cláusula</text><rect x="748.0" y="922" width="556.0" height="8" rx="4" fill="#d6d6d6" stroke="none" stroke-width="1.5"/><rect x="748.0" y="940" width="556.0" height="8" rx="4" fill="#d6d6d6" stroke="none" stroke-width="1.5"/><rect x="748.0" y="958" width="333.59999999999997" height="8" rx="4" fill="#d6d6d6" stroke="none" stroke-width="1.5"/><rect x="120.0" y="1022" width="588.0" height="130" rx="6" fill="#fff" stroke="#9a9a9a" stroke-width="1.5"/><text x="136.0" y="1052" font-family="Arial, Helvetica, sans-serif" font-size="16" fill="#222" text-anchor="start" font-weight="700">3. Cláusula</text><rect x="136.0" y="1072" width="556.0" height="8" rx="4" fill="#d6d6d6" stroke="none" stroke-width="1.5"/><rect x="136.0" y="1090" width="556.0" height="8" rx="4" fill="#d6d6d6" stroke="none" stroke-width="1.5"/><rect x="136.0" y="1108" width="333.59999999999997" height="8" rx="4" fill="#d6d6d6" stroke="none" stroke-width="1.5"/><rect x="732.0" y="1022" width="588.0" height="130" rx="6" fill="#fff" stroke="#9a9a9a" stroke-width="1.5"/><text x="748.0" y="1052" font-family="Arial, Helvetica, sans-serif" font-size="16" fill="#222" text-anchor="start" font-weight="700">4. Cláusula</text><rect x="748.0" y="1072" width="556.0" height="8" rx="4" fill="#d6d6d6" stroke="none" stroke-width="1.5"/><rect x="748.0" y="1090" width="556.0" height="8" rx="4" fill="#d6d6d6" stroke="none" stroke-width="1.5"/><rect x="748.0" y="1108" width="333.59999999999997" height="8" rx="4" fill="#d6d6d6" stroke="none" stroke-width="1.5"/><text x="120" y="1182" font-family="Arial, Helvetica, sans-serif" font-size="13" fill="#8a8a8a" text-anchor="start">6 cláusulas: responsable, datos, finalidad, protección, derechos ARCO y aviso AAIP</text><rect x="0" y="1230" width="1440" height="260" rx="0" fill="#d9d9d9" stroke="#9a9a9a" stroke-width="1.5"/><text x="120.0" y="1280" font-family="Arial, Helvetica, sans-serif" font-size="16" fill="#222" text-anchor="start" font-weight="700">Casaca Club</text><rect x="120.0" y="1300" width="180" height="8" rx="4" fill="#f4f4f4" stroke="none" stroke-width="1.5"/><rect x="120.0" y="1316" width="180" height="8" rx="4" fill="#f4f4f4" stroke="none" stroke-width="1.5"/><rect x="120.0" y="1332" width="125.99999999999999" height="8" rx="4" fill="#f4f4f4" stroke="none" stroke-width="1.5"/><text x="420.0" y="1280" font-family="Arial, Helvetica, sans-serif" font-size="16" fill="#222" text-anchor="start" font-weight="700">Enlaces</text><rect x="420.0" y="1300" width="180" height="8" rx="4" fill="#f4f4f4" stroke="none" stroke-width="1.5"/><rect x="420.0" y="1316" width="180" height="8" rx="4" fill="#f4f4f4" stroke="none" stroke-width="1.5"/><rect x="420.0" y="1332" width="180" height="8" rx="4" fill="#f4f4f4" stroke="none" stroke-width="1.5"/><rect x="420.0" y="1348" width="125.99999999999999" height="8" rx="4" fill="#f4f4f4" stroke="none" stroke-width="1.5"/><text x="720.0" y="1280" font-family="Arial, Helvetica, sans-serif" font-size="16" fill="#222" text-anchor="start" font-weight="700">Contacto</text><rect x="720.0" y="1300" width="180" height="8" rx="4" fill="#f4f4f4" stroke="none" stroke-width="1.5"/><rect x="720.0" y="1316" width="125.99999999999999" height="8" rx="4" fill="#f4f4f4" stroke="none" stroke-width="1.5"/><text x="1020.0" y="1280" font-family="Arial, Helvetica, sans-serif" font-size="16" fill="#222" text-anchor="start" font-weight="700">Licencia</text><rect x="1020.0" y="1300" width="180" height="8" rx="4" fill="#f4f4f4" stroke="none" stroke-width="1.5"/><rect x="1020.0" y="1316" width="125.99999999999999" height="8" rx="4" fill="#f4f4f4" stroke="none" stroke-width="1.5"/><rect x="120" y="1430" width="1200" height="1" rx="0" fill="#9a9a9a" stroke="none" stroke-width="1.5"/><rect x="520.0" y="1454" width="400" height="8" rx="4" fill="#f4f4f4" stroke="none" stroke-width="1.5"/></svg>